<svg xmlns="http://www.w3.org/2000/svg" viewBox="410 339 1177 1320"><path fill="#ffffff" d="M 431.463 360.250 C 431.202 360.938, 431.104 564.450, 431.244 812.500 L 431.500 1263.500 554.500 1263.757 C 688.223 1264.036, 686.533 1264.097, 701.643 1258.495 C 716.693 1252.915, 731.301 1237.287, 736.215 1221.509 C 740.451 1207.908, 740.309 1210.556, 740.917 1134 L 741.500 1060.500 777 1060.500 L 812.500 1060.500 813.035 1134 C 813.514 1199.736, 813.753 1208.118, 815.300 1213.354 C 823.361 1240.647, 836.441 1254.149, 861.665 1261.216 C 869.499 1263.411, 869.519 1263.411, 989 1263.755 C 1069.057 1263.986, 1112.451 1263.744, 1120.471 1263.023 C 1155.653 1259.857, 1175.793 1242.216, 1183.290 1208 C 1183.852 1205.436, 1184.540 1172.735, 1184.888 1132 L 1185.500 1060.500 1218.500 1060.221 C 1236.650 1060.067, 1252.493 1060.183, 1253.707 1060.479 L 1255.914 1061.017 1256.224 1133.758 L 1256.534 1206.500 1259.236 1215.160 C 1268.729 1245.577, 1288.528 1260.608, 1322.277 1263.020 C 1343.171 1264.513, 1564.981 1264.260, 1565.464 1262.742 C 1566.010 1261.023, 1566.816 362.799, 1566.272 361.250 C 1565.931 360.279, 1557.058 360, 1526.460 360 L 1487.086 360 1478.388 369.750 C 1447.107 404.814, 1405.115 452.274, 1391.965 467.427 C 1390.021 469.667, 1382.352 478.475, 1374.922 487 C 1367.492 495.525, 1360.328 504.075, 1359.002 506 C 1356.556 509.550, 1326.510 544.321, 1304.535 569.033 C 1297.916 576.477, 1282.825 593.558, 1271 606.991 C 1259.175 620.424, 1241.513 640.366, 1231.750 651.307 C 1221.987 662.247, 1214 671.605, 1214 672.102 C 1214 672.637, 1126.991 672.902, 1000.281 672.752 L 786.561 672.500 770.718 655 C 762.004 645.375, 748.886 630.750, 741.566 622.500 C 734.246 614.250, 720.211 598.476, 710.378 587.446 C 677.636 550.720, 643.483 511.537, 641.566 508.500 C 639.454 505.152, 637.800 503.253, 601.954 463 C 528.966 381.040, 518.270 369.082, 513.620 364.250 L 508.568 359 470.253 359 C 440.520 359, 431.831 359.280, 431.463 360.250 M 432.048 1336 C 431.629 1336.275, 431.048 1339.551, 430.756 1343.281 L 430.225 1350.062 521.863 1419.545 C 572.263 1457.760, 625.195 1497.909, 639.488 1508.764 C 680.166 1539.655, 706.096 1559.299, 724 1572.790 L 740.500 1585.222 740.784 1571.361 C 740.940 1563.737, 740.909 1520.825, 740.714 1476 C 740.337 1389.202, 740.621 1394.630, 735.621 1378.500 C 730.823 1363.023, 717.363 1349.197, 700.639 1342.567 C 683.630 1335.825, 686.514 1335.959, 553.203 1335.718 C 486.986 1335.598, 432.466 1335.725, 432.048 1336 M 1434.500 1336.023 C 1330.509 1336.516, 1316.757 1336.761, 1310.814 1338.223 C 1285.586 1344.432, 1269.194 1358.368, 1261.090 1380.500 C 1256.620 1392.707, 1256.772 1389.397, 1256.070 1490 C 1255.704 1542.525, 1255.700 1585.865, 1256.063 1586.311 C 1256.790 1587.206, 1281.591 1568.688, 1358.938 1509.500 C 1374.751 1497.400, 1398.446 1479.336, 1411.594 1469.357 C 1424.742 1459.379, 1451.025 1439.390, 1470 1424.937 C 1488.975 1410.484, 1516.650 1389.443, 1531.500 1378.180 C 1571.188 1348.076, 1567 1352.093, 1567 1344.133 C 1567 1335.634, 1566.302 1334.939, 1558.050 1335.234 C 1554.447 1335.363, 1498.850 1335.718, 1434.500 1336.023 M 869.946 1337.976 C 840.702 1344.073, 823.690 1360.017, 816.184 1388.365 L 813.500 1398.500 813.500 1519 L 813.500 1639.500 999 1639.500 L 1184.500 1639.500 1184.798 1524.500 C 1185.120 1399.996, 1185.016 1396.992, 1179.837 1381.171 C 1171.715 1356.363, 1154.584 1342.668, 1125.258 1337.538 C 1110.984 1335.041, 882.140 1335.433, 869.946 1337.976"/></svg>